<svg width="93" height="128" viewBox="0 0 93 128" fill="none" xmlns="http://www.w3.org/2000/svg">
<path d="M65.41 2.67591H92.6611V76.0056C92.6731 111.165 73.0777 128 43.6066 128C30.1431 128 18.2274 123.5 10.8957 117.332L21.8033 97.3289C28.1031 101.505 34.0669 104.001 42.0827 104.001C56.5662 104.001 65.422 93.8371 65.422 79.1735V74.6737C59.2901 81.8374 50.6024 85.3413 41.0627 85.3413C17.7114 85.3293 0 66.3339 0 42.6707C0 19.0074 17.7114 0 41.0507 0C50.5904 0 59.2781 3.50389 65.41 10.6677V2.67591ZM46.3305 61.3301C56.7222 61.3301 65.41 52.8343 65.41 42.6587C65.41 32.495 56.7222 23.9872 46.3305 23.9872C35.9389 23.9872 27.2511 32.483 27.2511 42.6587C27.2511 52.8343 35.9389 61.3301 46.3305 61.3301Z" fill="white"/>
</svg>
