<svg width="154" height="128" viewBox="0 0 154 128" fill="none" xmlns="http://www.w3.org/2000/svg">
<path d="M10.3611 55.0249C57.677 34.2094 118.907 8.83099 127.359 5.31844C149.53 -3.87517 156.333 -2.11325 152.941 18.2467C150.505 32.8805 143.476 81.3295 137.874 111.485C134.55 129.368 127.092 131.488 115.365 123.751C109.725 120.028 81.2596 101.204 75.0816 96.784C69.4419 92.7556 61.6639 87.9104 71.4184 78.3666C74.8896 74.967 97.6439 53.2404 115.372 36.329C117.695 34.1078 114.777 30.4597 112.097 32.2404C88.2019 48.0864 55.0717 70.0803 50.8552 72.9453C44.4851 77.2711 38.3674 79.2551 27.3855 76.1002C19.0879 73.7171 10.9823 70.8747 7.82739 69.7904C-4.32158 65.6191 -1.43775 60.2166 10.3611 55.0249Z" fill="white"/>
</svg>
